<?xml version="1.0" encoding="utf-8"?>
<!-- Generator: Adobe Illustrator 19.2.1, SVG Export Plug-In . SVG Version: 6.00 Build 0)  -->
<svg version="1.1" id="layer" xmlns="http://www.w3.org/2000/svg" xmlns:xlink="http://www.w3.org/1999/xlink" x="0px" y="0px"
	 viewBox="0 0 652 652" style="enable-background:new 0 0 652 652;" xml:space="preserve">
<style type="text/css">
	.st0{fill:#004483;}
	.st1{fill:#7D868C;}
</style>
<rect x="53.3" y="354" class="st0" width="96.4" height="25.5"/>
<g>
	<path class="st0" d="M152.6,264.7c0,26.8-23,48.6-51.3,48.6c-28.3,0-51.3-21.7-51.3-48.6H20.8c0,42.2,36.1,76.3,80.6,76.3
		c44.5,0,80.6-34.2,80.6-76.3H152.6z"/>
	<path class="st1" d="M292.3,304.5c-5.8-7.4-15.3-11.4-25-11.4c-17.4,0-29.2,12.6-29.2,28.7c0,16.4,11.9,28.2,29.6,28.2
		c9.3,0,18.6-4.2,24.6-11v32.3c-9.5,2.8-16.3,4.8-25.1,4.8c-15.2,0-29.8-5.5-41.1-15.3c-12-10.3-17.6-23.8-17.6-39.2
		c0-14.2,5.7-27.8,16.1-38c10.8-10.4,26.3-16.8,41.7-16.8c9.2,0,17.6,1.9,26,5.2V304.5z"/>
	<path class="st1" d="M378,330.9c15.5-2.6,24-15,24-29.3c0-22.1-16.4-31.9-38.1-31.9h-42.5v103.7h28.4v-39.9h0.3l26.8,39.9h35.5
		L378,330.9z M349.8,290.3h2.7c9.3,0,19.8,1.7,19.8,12.9c0,11.3-10.5,12.9-19.8,12.9h-2.7V290.3z"/>
</g>
<rect x="431.6" y="269.7" class="st1" width="28.5" height="103.7"/>
<polygon class="st1" points="502.1,269.7 530.1,269.7 552.4,325.1 575.9,269.7 604.2,269.7 620.8,373.4 592.3,373.4 584.3,313.7 
	584,313.7 557.7,373.4 546.4,373.4 521.3,313.7 521,313.7 511.8,373.4 483.5,373.4 "/>
</svg>
